<?xml version="1.0" encoding="UTF-8" standalone="no"?>
<svg
   xmlns:dc="http://purl.org/dc/elements/1.1/"
   xmlns:cc="http://creativecommons.org/ns#"
   xmlns:rdf="http://www.w3.org/1999/02/22-rdf-syntax-ns#"
   xmlns:svg="http://www.w3.org/2000/svg"
   xmlns="http://www.w3.org/2000/svg"
   xmlns:sodipodi="http://sodipodi.sourceforge.net/DTD/sodipodi-0.dtd"
   xmlns:inkscape="http://www.inkscape.org/namespaces/inkscape"
   height="128"
   viewBox="0 0 120 120"
   width="128"
   id="svg3336"
   version="1.1"
   inkscape:version="0.92.2 (5c3e80d, 2017-08-06)"
   sodipodi:docname="classinfo.svg"
   style="enable-background:new">
  <metadata
     id="metadata3367">
    <rdf:RDF>
      <cc:Work
         rdf:about="">
        <dc:format>image/svg+xml</dc:format>
        <dc:type
           rdf:resource="http://purl.org/dc/dcmitype/StillImage" />
        <dc:title></dc:title>
      </cc:Work>
    </rdf:RDF>
  </metadata>
  <defs
     id="defs3365" />
  <sodipodi:namedview
     pagecolor="#ffffff"
     bordercolor="#666666"
     borderopacity="1"
     objecttolerance="10"
     gridtolerance="10"
     guidetolerance="10"
     inkscape:pageopacity="0"
     inkscape:pageshadow="2"
     inkscape:window-width="1920"
     inkscape:window-height="1137"
     id="namedview3363"
     showgrid="false"
     inkscape:zoom="4.2291665"
     inkscape:cx="7.5812806"
     inkscape:cy="68.115533"
     inkscape:window-x="1912"
     inkscape:window-y="-8"
     inkscape:window-maximized="1"
     inkscape:current-layer="svg3336"
     units="px" />
  <filter
     id="a"
     style="color-interpolation-filters:sRGB">
    <feBlend
       in2="BackgroundImage"
       mode="multiply"
       id="feBlend3339" />
  </filter>
  <path
     d="m 21.594458,12.136429 c -1e-6,5.638195 -4.061318,9.69969 -9.699514,9.69969 -5.6381954,-1e-6 -9.6997076,-4.061495 -9.6997082,-9.69969 2e-7,-5.6381957 4.0614155,-9.6996904 9.6996112,-9.6996907 5.638196,0 9.699611,4.0614943 9.699611,9.6996907 z"
     transform="matrix(4.9969386,0,0,4.9968979,-0.67578624,-1.8676851)"
     id="path3341"
     inkscape:connector-curvature="0"
     style="fill:#f0f0a0;filter:url(#a)" />
  <path
     d="m 60.804798,33.476416 c -5.447548,0 -10.302108,1.084416 -14.528552,3.258451 -4.197557,2.149547 -7.469988,5.179074 -9.775382,9.067869 -2.306072,3.889968 -3.447791,8.346455 -3.447791,13.332778 0,8.105899 2.432191,14.586425 7.314098,19.32158 v 0.0102 c 4.911267,4.714135 11.722623,7.055055 20.318047,7.055055 3.428167,0 6.530469,-0.429073 9.317007,-1.295432 2.781726,-0.86488 5.171987,-2.101027 7.1447,-3.70686 1.95505,-1.591548 3.582684,-3.400948 4.872743,-5.420803 1.286233,-2.037355 2.302273,-4.301542 3.049201,-6.795927 l -0.488255,-0.657691 h -9.446549 l -0.508204,0.438256 c -0.342646,2.374287 -1.862088,4.424753 -4.69338,6.208032 -2.805129,1.758432 -5.91419,2.640607 -9.366826,2.640607 -3.278023,0 -6.192665,-0.774677 -8.78888,-2.331736 -2.601685,-1.560324 -4.62335,-3.677983 -6.078472,-6.377416 -1.454948,-2.721421 -2.182272,-5.751357 -2.182272,-9.117714 0,-5.127646 1.516271,-9.201284 4.543909,-12.33632 3.046048,-3.127791 7.200593,-4.703318 12.585432,-4.703318 3.347761,0 6.138778,0.628252 8.410215,1.863379 l 0.0102,0.0102 c 2.301997,1.237984 3.808848,2.886776 4.603699,4.992343 l 0.478306,0.329075 h 9.446549 l 0.488255,-0.667639 c -1.44993,-4.575101 -4.222443,-8.25987 -8.270944,-11.00124 -4.059475,-2.748819 -9.076358,-4.115423 -15.006854,-4.115423 z"
     overflow="visible"
     id="path3343"
     inkscape:connector-curvature="0"
     style="overflow:visible;fill:#bebe00;stroke-width:5.10193253" />
  <path
     d="m 58.76203,10.308444 c -25.335324,5e-6 -44.246766,16.433319 -47.810688,40.227559 A 45.997112,45.997112 0 0 0 36.311534,58.188902 45.997112,45.997112 0 0 0 82.129278,15.719283 C 75.32026,12.247117 67.419096,10.308444 58.76203,10.308444 Z"
     id="path3345"
     inkscape:connector-curvature="0"
     style="fill:#f6f6c3;stroke-width:5.10193253" />
  <path
     d="m 107.23039,58.776797 c 0,28.173483 -20.294153,48.468363 -48.46787,48.468363 -28.173718,0 -48.468845,-20.29488 -48.468848,-48.468363 10e-7,-28.173483 20.294644,-48.468348 48.468363,-48.468353 28.173718,0 48.468355,20.29487 48.468355,48.468353 z"
     stroke-miterlimit="0"
     id="path3347"
     inkscape:connector-curvature="0"
     style="fill:none;stroke:#bebe00;stroke-width:5.101933;stroke-miterlimit:0" />
  <path
     d="m 60.804798,33.476416 c -5.447548,0 -10.302108,1.084416 -14.528552,3.258451 -4.197557,2.149547 -7.469989,5.179074 -9.775382,9.067869 -2.133866,3.599515 -3.220138,7.706061 -3.378038,12.246628 a 45.997109,45.997109 0 0 0 3.188708,0.139282 45.997109,45.997109 0 0 0 7.324063,-0.657639 c 0.291846,-4.372713 1.723364,-7.965137 4.424332,-10.761914 3.046049,-3.127791 7.200593,-4.703318 12.585433,-4.703318 3.347761,0 6.138778,0.628252 8.410214,1.863378 l 0.0102,0.0102 c 0.108978,0.05867 0.193517,0.129079 0.298922,0.189282 A 45.997109,45.997109 0 0 0 74.92479,37.09358 C 71.022429,34.71159 66.326513,33.476412 60.804794,33.476412 Z"
     overflow="visible"
     id="path3359"
     inkscape:connector-curvature="0"
     style="overflow:visible;fill:none;stroke-width:5.10193253" />
  <path
     d="m 60.804798,33.476416 c -5.447548,0 -10.302108,1.084416 -14.528552,3.258451 -4.197557,2.149547 -7.469989,5.179074 -9.775382,9.067869 -2.133866,3.599515 -3.220138,7.706061 -3.378038,12.246628 a 45.997109,45.997109 0 0 0 3.188708,0.139282 45.997109,45.997109 0 0 0 7.324063,-0.657639 c 0.291846,-4.372713 1.723364,-7.965137 4.424332,-10.761914 3.046049,-3.127791 7.200593,-4.703318 12.585433,-4.703318 3.347761,0 6.138778,0.628252 8.410214,1.863378 l 0.0102,0.0102 c 0.108978,0.05867 0.193517,0.129079 0.298922,0.189282 A 45.997109,45.997109 0 0 0 74.92479,37.09358 C 71.022429,34.71159 66.326513,33.476412 60.804794,33.476412 Z"
     id="path3361"
     inkscape:connector-curvature="0"
     style="fill:#d6d65f;stroke-width:5.10193253" />
</svg>
