<?xml version="1.0" encoding="UTF-8" standalone="no"?>
<svg
   xmlns:dc="http://purl.org/dc/elements/1.1/"
   xmlns:cc="http://creativecommons.org/ns#"
   xmlns:rdf="http://www.w3.org/1999/02/22-rdf-syntax-ns#"
   xmlns:svg="http://www.w3.org/2000/svg"
   xmlns="http://www.w3.org/2000/svg"
   xmlns:sodipodi="http://sodipodi.sourceforge.net/DTD/sodipodi-0.dtd"
   xmlns:inkscape="http://www.inkscape.org/namespaces/inkscape"
   height="256"
   viewBox="0 0 67.733332 67.733336"
   width="256"
   version="1.1"
   id="svg1597"
   sodipodi:docname="import_symbology.svg"
   inkscape:version="1.0.1 (3bc2e813f5, 2020-09-07)">
  <metadata
     id="metadata1603">
    <rdf:RDF>
      <cc:Work
         rdf:about="">
        <dc:format>image/svg+xml</dc:format>
        <dc:type
           rdf:resource="http://purl.org/dc/dcmitype/StillImage" />
        <dc:title></dc:title>
      </cc:Work>
    </rdf:RDF>
  </metadata>
  <defs
     id="defs1601" />
  <sodipodi:namedview
     pagecolor="#ffffff"
     bordercolor="#666666"
     borderopacity="1"
     objecttolerance="10"
     gridtolerance="10"
     guidetolerance="10"
     inkscape:pageopacity="0"
     inkscape:pageshadow="2"
     inkscape:window-width="1920"
     inkscape:window-height="1017"
     id="namedview1599"
     showgrid="false"
     inkscape:zoom="0.94726563"
     inkscape:cx="-356.82301"
     inkscape:cy="26.570133"
     inkscape:window-x="-8"
     inkscape:window-y="-8"
     inkscape:window-maximized="1"
     inkscape:current-layer="svg1597" />
  <linearGradient
     id="a"
     gradientTransform="rotate(43.47495,8.3343766,288.28166)"
     gradientUnits="userSpaceOnUse"
     x1="11.125094"
     x2="6.481286"
     y1="286.60989"
     y2="286.00851">
    <stop
       offset="0"
       stop-color="#bf7b10"
       id="stop1542" />
    <stop
       offset="1"
       stop-color="#e8b86d"
       id="stop1544" />
  </linearGradient>
  <linearGradient
     id="b"
     gradientTransform="rotate(43.47495,8.3343766,288.28166)"
     gradientUnits="userSpaceOnUse"
     x1="11.509375"
     x2="5.2471313"
     y1="294.75101"
     y2="291.61029">
    <stop
       offset="0"
       stop-color="#e2af61"
       id="stop1547" />
    <stop
       offset="1"
       stop-color="#f1d8b2"
       id="stop1549" />
  </linearGradient>
  <linearGradient
     id="c"
     gradientTransform="matrix(0.9837838,0,0,1,-0.08938991,0.09453092)"
     gradientUnits="userSpaceOnUse"
     x1="5.0081882"
     x2="0.89769715"
     y1="281.89978"
     y2="280.76587">
    <stop
       offset="0"
       stop-color="#fce94f"
       id="stop1552" />
    <stop
       offset="1"
       stop-color="#fce94f"
       stop-opacity=".25742576"
       id="stop1554" />
  </linearGradient>
  <linearGradient
     id="d"
     gradientTransform="matrix(0.98378379,0,0,1,-0.08938989,3.004935)"
     gradientUnits="userSpaceOnUse"
     x1="5.0081882"
     x2="0.89769715"
     y1="281.89978"
     y2="280.76587">
    <stop
       offset="0"
       stop-color="#729ece"
       id="stop1557" />
    <stop
       offset="1"
       stop-color="#729ece"
       stop-opacity=".51485151"
       id="stop1559" />
  </linearGradient>
  <linearGradient
     id="e"
     gradientTransform="matrix(0.98378379,0,0,1,-0.08938989,5.9153515)"
     gradientUnits="userSpaceOnUse"
     x1="5.0081882"
     x2="0.89769715"
     y1="281.89978"
     y2="280.76587">
    <stop
       offset="0"
       stop-color="#ec2d27"
       id="stop1562" />
    <stop
       offset="1"
       stop-color="#ef2929"
       stop-opacity=".44554454"
       id="stop1564" />
  </linearGradient>
  <g
     transform="matrix(4.1926654,0,0,4.1926654,-0.89944408,-1169.051)"
     id="g1595">
    <g
       fill-rule="evenodd"
       stroke-width="1.06186"
       transform="matrix(0.81317949,0.35395959,-0.39866173,0.91709757,115.33282,25.155894)"
       id="g1573">
      <path
         d="M 0.79374999,280.86041 H 11.1125 v 2.91042 H 0.79374999 Z"
         fill="url(#c)"
         overflow="visible"
         id="path1567"
         style="fill:url(#c)" />
      <path
         d="M 0.79374999,283.77081 H 11.1125 v 2.91042 H 0.79374999 Z"
         fill="url(#d)"
         overflow="visible"
         id="path1569"
         style="fill:url(#d)" />
      <path
         d="M 0.79374999,286.68124 H 11.1125 v 2.91042 H 0.79374999 Z"
         fill="url(#e)"
         overflow="visible"
         id="path1571"
         style="fill:url(#e)" />
    </g>
    <g
       stroke="#976009"
       transform="translate(2.9291492,-0.4645356)"
       id="g1593">
      <path
         d="m 7.3488466,288.29569 4.3540224,-4.76315 c 0.638058,-0.67296 1.848869,0.4389 1.192763,1.1309 l -4.5245605,4.60145 c 1.9744655,1.87206 1.4540054,2.04932 0.7239703,2.81929 l -4.6000124,-4.36142 c 0.7301315,-0.77008 0.91071,-1.2694 2.8538172,0.57293 z"
         fill="url(#a)"
         fill-rule="evenodd"
         stroke-width="0.264583"
         id="path1575"
         style="fill:url(#a)" />
      <path
         d="m 4.4918833,287.71977 -2.9126893,3.07203 4.608038,4.36903 2.9126892,-3.07202 z"
         fill="url(#b)"
         fill-rule="evenodd"
         stroke-width="0.264583"
         id="path1577"
         style="fill:url(#b)" />
      <path
         d="m 4.9764608,288.36233 -2.7298623,2.8792"
         fill="none"
         stroke-width="0.132292"
         id="path1579" />
      <path
         d="m 5.5524655,288.90846 -2.7298622,2.8792"
         fill="none"
         stroke-width="0.132292"
         id="path1581" />
      <path
         d="m 6.1284703,289.45459 -2.7298622,2.8792"
         fill="none"
         stroke-width="0.132292"
         id="path1583" />
      <path
         d="m 6.704475,290.00072 -2.7298622,2.8792"
         fill="none"
         stroke-width="0.132292"
         id="path1585" />
      <path
         d="m 7.2804797,290.54685 -2.7298622,2.8792"
         fill="none"
         stroke-width="0.132292"
         id="path1587" />
      <path
         d="m 7.8569042,291.09254 -2.7306467,2.88002"
         fill="none"
         stroke-width="0.132292"
         id="path1589" />
      <path
         d="m 8.4332737,291.63828 -2.73064,2.88002"
         fill="none"
         stroke-width="0.132292"
         id="path1591" />
    </g>
  </g>
  <g
     id="g2911"
     transform="matrix(0,-1,-1,0,19.557839,7.2666296)">
    <path
       style="fill:#31b428;fill-opacity:1;fill-rule:evenodd;stroke-width:1.78244"
       inkscape:connector-curvature="0"
       id="path2"
       d="M -14.092402,-12.218043 -24.787045,1.1502604 -14.092402,14.518563 V 5.6063614 h 8.9122021 c 4.80099303,4.6462876 1.73062,8.9122016 -3.56488,8.9122016 v 3.564882 c 6.074255,0 14.259522,-2.345158 14.259522,-13.3683036 0,-3.750611 -3.075535,-8.0209821 -10.694642,-8.0209821 h -8.9122021 z" />
    <path
       style="fill:#69c862;fill-opacity:1;fill-rule:evenodd;stroke-width:1.78244"
       inkscape:connector-curvature="0"
       id="path4"
       d="M -24.530544,1.2613064 -14.98474,14.23284 v -4.010493 l -8.912202,-11.1402526 z m 11.328255,2.27689 v 1.78244 h 7.1297621 c 2.405894,2.328402 2.831758,4.55877 1.994801,6.2071706 2.605956,-1.498142 3.24915203,-4.6396926 -0.21236,-7.9896106 z M 2.0215611,13.090829 c -2.87060497,2.250332 -6.663089,2.92445 -9.876528,2.92445 v -1.963536 c -0.557597,0.114075 -1.152319,0.181097 -1.78244,0.181097 v 3.564879 c 3.939328,0 8.75236003,-1.006721 11.658968,-4.70689 z" />
    <path
       style="fill:none;stroke:#1b781c;stroke-width:1.78244;stroke-linejoin:round;stroke-opacity:1"
       inkscape:connector-curvature="0"
       id="path6"
       d="M -14.092402,-12.218043 -24.787045,1.1502604 -14.092402,14.518563 V 5.6063614 h 8.9122021 c 4.80099303,4.6462876 1.73062,8.9122016 -3.56488,8.9122016 v 3.564882 c 6.074255,0 14.259522,-2.345158 14.259522,-13.3683036 0,-3.750611 -3.075535,-8.0209821 -10.694642,-8.0209821 h -8.9122021 z" />
  </g>
</svg>
