<?xml version="1.0" encoding="UTF-8" standalone="no"?>
<svg
   xmlns:dc="http://purl.org/dc/elements/1.1/"
   xmlns:cc="http://creativecommons.org/ns#"
   xmlns:rdf="http://www.w3.org/1999/02/22-rdf-syntax-ns#"
   xmlns:svg="http://www.w3.org/2000/svg"
   xmlns="http://www.w3.org/2000/svg"
   xmlns:sodipodi="http://sodipodi.sourceforge.net/DTD/sodipodi-0.dtd"
   xmlns:inkscape="http://www.inkscape.org/namespaces/inkscape"
   version="1.1"
   id="Capa_1"
   x="0px"
   y="0px"
   viewBox="0 0 65 65"
   xml:space="preserve"
   inkscape:version="0.92.1 r15371"
   sodipodi:docname="poly2speclib.svg"
   width="65"
   height="65"><metadata
     id="metadata65"><rdf:RDF><cc:Work
         rdf:about=""><dc:format>image/svg+xml</dc:format><dc:type
           rdf:resource="http://purl.org/dc/dcmitype/StillImage" /><dc:title></dc:title></cc:Work></rdf:RDF></metadata><defs
     id="defs63" /><sodipodi:namedview
     pagecolor="#ffffff"
     bordercolor="#666666"
     borderopacity="1"
     objecttolerance="10"
     gridtolerance="10"
     guidetolerance="10"
     inkscape:pageopacity="0"
     inkscape:pageshadow="2"
     inkscape:window-width="1920"
     inkscape:window-height="1017"
     id="namedview61"
     showgrid="false"
     inkscape:zoom="4.4528302"
     inkscape:cx="15.125429"
     inkscape:cy="26.5"
     inkscape:window-x="1672"
     inkscape:window-y="-8"
     inkscape:window-maximized="1"
     inkscape:current-layer="Capa_1" /><g
     id="g5"
     transform="matrix(0.57552931,0,0,0.60107923,31.302401,31.330599)"
     style="fill:#ff3300;fill-opacity:1;stroke:#000000;stroke-opacity:1"><path
       style="fill:#ff3300;fill-opacity:1;stroke:#000000;stroke-opacity:1"
       d="M 26.5,41 C 13.245,41 2.5,37.194 2.5,32.5 V 45 h 0.045 c 0.731,4.461 11.175,8 23.955,8 12.78,0 23.224,-3.539 23.955,-8 H 50.5 V 32.5 c 0,4.694 -10.745,8.5 -24,8.5 z"
       id="path7"
       inkscape:connector-curvature="0" /><path
       style="fill:#ff3300;fill-opacity:1;stroke:#000000;stroke-opacity:1"
       d="m 2.5,32 v 0.5 c 0,-0.168 0.018,-0.334 0.045,-0.5 z"
       id="path9"
       inkscape:connector-curvature="0" /><path
       style="fill:#ff3300;fill-opacity:1;stroke:#000000;stroke-opacity:1"
       d="m 50.455,32 c 0.027,0.166 0.045,0.332 0.045,0.5 V 32 Z"
       id="path11"
       inkscape:connector-curvature="0" /></g><g
     id="g13"
     transform="matrix(0.57552931,0,0,0.60107923,31.302401,31.330599)"
     style="fill:#73d216;stroke:#000000;stroke-opacity:1"><path
       style="fill:#73d216;stroke:#000000;stroke-opacity:1"
       d="M 26.5,29 C 13.245,29 2.5,25.194 2.5,20.5 V 33 h 0.045 c 0.731,4.461 11.175,8 23.955,8 12.78,0 23.224,-3.539 23.955,-8 H 50.5 V 20.5 c 0,4.694 -10.745,8.5 -24,8.5 z"
       id="path15"
       inkscape:connector-curvature="0" /><path
       style="fill:#73d216;stroke:#000000;stroke-opacity:1"
       d="m 2.5,20 v 0.5 c 0,-0.168 0.018,-0.334 0.045,-0.5 z"
       id="path17"
       inkscape:connector-curvature="0" /><path
       style="fill:#73d216;stroke:#000000;stroke-opacity:1"
       d="m 50.455,20 c 0.027,0.166 0.045,0.332 0.045,0.5 V 20 Z"
       id="path19"
       inkscape:connector-curvature="0" /></g><ellipse
     style="fill:#729fcf;stroke:#000000;stroke-width:0.58816558;stroke-opacity:1"
     cx="46.553928"
     cy="36.439774"
     rx="13.812703"
     ry="5.1091743"
     id="ellipse21" /><g
     id="g23"
     transform="matrix(0.49816774,0,0,0.49740155,29.996183,36.758968)"
     style="fill:#3465a4;fill-opacity:1"><path
       style="fill:#3465a4;fill-opacity:1;stroke:#000000;stroke-width:1.1815666;stroke-opacity:1"
       d="m 33.237288,9.6300025 c -15.313398,0 -27.7270132,-4.599317 -27.7270132,-10.27172821 V 14.463757 h 0.051988 c 0.8445188,5.390844 12.9103902,9.667509 27.6750252,9.667509 14.764635,0 26.830507,-4.276665 27.675025,-9.667509 h 0.05199 V -0.64172571 C 60.964301,5.0306855 48.550686,9.6300025 33.237288,9.6300025 Z"
       id="path25"
       inkscape:connector-curvature="0" /><path
       style="fill:#3465a4;fill-opacity:1"
       d="M 2.5,8 V 8.5 C 2.5,8.332 2.518,8.166 2.545,8 Z"
       id="path27"
       inkscape:connector-curvature="0" /><path
       style="fill:#3465a4;fill-opacity:1"
       d="M 50.455,8 C 50.482,8.166 50.5,8.332 50.5,8.5 V 8 Z"
       id="path29"
       inkscape:connector-curvature="0" /></g><g
     id="g31"
     transform="translate(0,12)" /><g
     id="g33"
     transform="translate(0,12)" /><g
     id="g35"
     transform="translate(0,12)" /><g
     id="g37"
     transform="translate(0,12)" /><g
     id="g39"
     transform="translate(0,12)" /><g
     id="g41"
     transform="translate(0,12)" /><g
     id="g43"
     transform="translate(0,12)" /><g
     id="g45"
     transform="translate(0,12)" /><g
     id="g47"
     transform="translate(0,12)" /><g
     id="g49"
     transform="translate(0,12)" /><g
     id="g51"
     transform="translate(0,12)" /><g
     id="g53"
     transform="translate(0,12)" /><g
     id="g55"
     transform="translate(0,12)" /><g
     id="g57"
     transform="translate(0,12)" /><g
     id="g59"
     transform="translate(0,12)" /><path
     id="path16"
     style="fill:#8cbe8c;fill-rule:evenodd;stroke:#555753;stroke-width:2.19664001;stroke-linecap:round;stroke-linejoin:round"
     d="M 18.33978,3.622463 C 12.427005,3.7297333 7.2461445,6.509506 5.1562441,13.27018 3.0824791,19.978647 7.6139733,32.0885 17.602543,26.703124 c 16.590113,-8.944621 16.581852,2.215744 20.729379,2.215744 5.116022,0 10.364692,-3.90894 10.364692,-8.909137 0,-4.472312 0.202202,-8.754554 -2.081611,-11.2171984 C 42.467475,4.3202214 40.376352,11.063507 29.224875,6.0690124 25.670897,4.4772652 21.887447,3.5581031 18.33978,3.622463 Z"
     inkscape:connector-curvature="0" /></svg>