<?xml version="1.0" encoding="UTF-8" standalone="no"?>
<svg
   xmlns:dc="http://purl.org/dc/elements/1.1/"
   xmlns:cc="http://creativecommons.org/ns#"
   xmlns:rdf="http://www.w3.org/1999/02/22-rdf-syntax-ns#"
   xmlns:svg="http://www.w3.org/2000/svg"
   xmlns="http://www.w3.org/2000/svg"
   xmlns:sodipodi="http://sodipodi.sourceforge.net/DTD/sodipodi-0.dtd"
   xmlns:inkscape="http://www.inkscape.org/namespaces/inkscape"
   height="256"
   width="256"
   version="1.1"
   id="svg5582"
   sodipodi:docname="profile_candidate.svg"
   inkscape:version="0.92.4 (5da689c313, 2019-01-14)">
  <metadata
     id="metadata5588">
    <rdf:RDF>
      <cc:Work
         rdf:about="">
        <dc:format>image/svg+xml</dc:format>
        <dc:type
           rdf:resource="http://purl.org/dc/dcmitype/StillImage" />
        <dc:title></dc:title>
      </cc:Work>
    </rdf:RDF>
  </metadata>
  <defs
     id="defs5586" />
  <sodipodi:namedview
     pagecolor="#ffffff"
     bordercolor="#666666"
     borderopacity="1"
     objecttolerance="10"
     gridtolerance="10"
     guidetolerance="10"
     inkscape:pageopacity="0"
     inkscape:pageshadow="2"
     inkscape:window-width="1920"
     inkscape:window-height="1001"
     id="namedview5584"
     showgrid="false"
     inkscape:zoom="1.2291667"
     inkscape:cx="-138.50671"
     inkscape:cy="143.95419"
     inkscape:window-x="-9"
     inkscape:window-y="-9"
     inkscape:window-maximized="1"
     inkscape:current-layer="svg5582"
     inkscape:document-rotation="0" />
  <g
     id="g13472"
     transform="matrix(2.2674702,0,0,2.2040208,-236.34488,367.63947)">
    <path
       style="fill:none;fill-opacity:1;fill-rule:evenodd;stroke:#555753;stroke-width:5.44499;stroke-linecap:butt;stroke-linejoin:miter;stroke-miterlimit:4;stroke-dasharray:none;stroke-opacity:1"
       d="m 107.08426,-77.730305 c 2.68558,-1.387901 2.25785,-6.333515 5.11108,-7.107243 2.81724,-0.170423 4.34487,7.153755 5.89741,5.552584 3.05311,-1.232009 -0.45284,-46.494626 10.81191,-51.972146 2.11468,-0.65515 3.12483,1.10127 4.52134,0.44411 1.88976,-0.88918 1.88598,-5.41899 3.9316,-5.33042 3.61559,0.15658 2.67983,9.73158 6.29057,9.99453 2.40616,0.17548 1.51039,-5.27168 4.9145,-5.99665 8.39209,-0.25253 4.3872,38.536951 12.58113,37.979665 5.04025,-0.369529 2.85413,-14.198235 7.66664,-15.547315 6.24198,-0.23366 12.99482,24.044903 19.06829,25.319882 3.69389,0.492828 5.64986,-5.590183 9.63242,-5.996947 3.27894,-0.21034 7.44822,7.24385 11.59824,11.105291"
       id="path19018"
       inkscape:connector-curvature="0"
       sodipodi:nodetypes="ccccaaacccccc" />
  </g>
  <path
     inkscape:connector-curvature="0"
     style="fill:#5c3566;fill-opacity:1;stroke-width:11.3438549"
     d="m 199.91443,142.10901 c -3.03869,-1e-5 -5.63909,-1.03262 -7.80119,-3.09821 -2.10372,-2.12128 -3.15555,-4.63333 -3.15551,-7.53612 -4e-5,-2.95863 1.0518,-5.47068 3.15551,-7.53617 2.1621,-2.06544 4.7625,-3.09818 7.80119,-3.09819 3.03861,10e-6 5.63898,1.03274 7.80116,3.09819 2.22052,2.06549 3.33079,4.57754 3.33085,7.53617 -6e-5,2.84697 -1.08119,5.33112 -3.24318,7.45239 -2.16218,2.12129 -4.7918,3.18193 -7.88883,3.18194 m 3.9444,-43.039792 v 6.615072 h -7.18759 V 93.87766 c -4e-5,-4.35418 0.58422,-8.038505 1.75307,-11.053021 1.16867,-3.014402 3.53531,-6.698727 7.09996,-11.053009 0.40905,-0.558117 1.02264,-1.311792 1.84071,-2.260853 8.29783,-10.103937 12.44674,-19.286866 12.44683,-27.548809 -9e-5,-7.256925 -1.72393,-12.671789 -5.17157,-16.244592 -3.38933,-3.572577 -8.53168,-5.358917 -15.42704,-5.359041 -4.20742,1.24e-4 -7.9473,0.94914 -11.21966,2.846989 -3.27244,1.89811 -4.90864,3.963577 -4.90861,6.196388 -3e-5,0.669969 1.34399,2.177226 4.03207,4.521695 2.68801,2.344684 4.03202,5.13585 4.03206,8.3735 -4e-5,2.958726 -0.96422,5.359132 -2.89258,7.201202 -1.86997,1.786442 -4.3827,2.679611 -7.53819,2.679521 -3.44774,9e-5 -6.22344,-1.200111 -8.32709,-3.600597 -2.10371,-2.400313 -3.15556,-5.582242 -3.15555,-9.545796 -1e-5,-7.368569 3.30161,-13.592863 9.90487,-18.672902 6.6032,-5.0798 14.90107,-7.619757 24.89363,-7.619882 10.05089,1.25e-4 18.23188,2.707563 24.54301,8.12229 6.36942,5.414978 9.55415,12.392888 9.55425,20.933756 -10e-5,10.494867 -6.92473,21.603699 -20.77391,33.326529 -1.75313,1.451457 -3.06793,2.567919 -3.94441,3.349397 -3.79838,3.293632 -6.34035,6.419725 -7.62589,9.378304 -1.28562,2.90287 -1.9284,6.643029 -1.92837,11.220489"
     id="path8" />
</svg>
