<?xml version="1.0" encoding="UTF-8" standalone="no"?>
<svg
   height="128"
   viewBox="0 0 128 128"
   width="128"
   version="1.1"
   id="svg925"
   sodipodi:docname="profile_fields.svg"
   inkscape:version="1.3 (0e150ed6c4, 2023-07-21)"
   xmlns:inkscape="http://www.inkscape.org/namespaces/inkscape"
   xmlns:sodipodi="http://sodipodi.sourceforge.net/DTD/sodipodi-0.dtd"
   xmlns:xlink="http://www.w3.org/1999/xlink"
   xmlns="http://www.w3.org/2000/svg"
   xmlns:svg="http://www.w3.org/2000/svg"
   xmlns:rdf="http://www.w3.org/1999/02/22-rdf-syntax-ns#"
   xmlns:cc="http://creativecommons.org/ns#"
   xmlns:dc="http://purl.org/dc/elements/1.1/">
  <metadata
     id="metadata931">
    <rdf:RDF>
      <cc:Work
         rdf:about="">
        <dc:format>image/svg+xml</dc:format>
        <dc:type
           rdf:resource="http://purl.org/dc/dcmitype/StillImage" />
      </cc:Work>
    </rdf:RDF>
  </metadata>
  <defs
     id="defs929">
    <linearGradient
       id="b"
       gradientTransform="matrix(0,-3.7911499,3.8661849,0,-1092.5199,1040.7819)"
       gradientUnits="userSpaceOnUse"
       x1="9.8159962"
       x2="12.982647"
       xlink:href="#a"
       y1="283.43033"
       y2="287.82614" />
    <linearGradient
       id="a">
      <stop
         offset="0"
         stop-color="#78a3e2"
         id="stop3554" />
      <stop
         offset="1"
         stop-color="#d1e0ff"
         id="stop3556" />
    </linearGradient>
  </defs>
  <sodipodi:namedview
     pagecolor="#ffffff"
     bordercolor="#666666"
     borderopacity="1"
     objecttolerance="10"
     gridtolerance="10"
     guidetolerance="10"
     inkscape:pageopacity="0"
     inkscape:pageshadow="2"
     inkscape:window-width="1920"
     inkscape:window-height="1129"
     id="namedview927"
     showgrid="false"
     inkscape:zoom="2.4661459"
     inkscape:cx="91.843715"
     inkscape:cy="86.572332"
     inkscape:window-x="1912"
     inkscape:window-y="-8"
     inkscape:window-maximized="1"
     inkscape:current-layer="svg925"
     fit-margin-top="0.1"
     fit-margin-left="0.2"
     fit-margin-right="0.2"
     fit-margin-bottom="0.1"
     inkscape:showpageshadow="2"
     inkscape:pagecheckerboard="0"
     inkscape:deskcolor="#d1d1d1" />
  <g
     id="g1"
     transform="translate(0.5126806,0.0949324)">
    <g
       id="g2217"
       transform="matrix(5.5378131,0,0,5.5378131,-2.9664378,-2.5486896)">
      <g
         stroke="#6e97c4"
         id="g907"
         transform="translate(0,-8.0595025)">
        <path
           d="m 2.5,15.5 h 19 v 14 h -19 z"
           fill="#e6e6e6"
           id="path883" />
        <path
           d="m 2.5,10.5 h 19 v 5 h -19 z"
           fill="#bad9ec"
           id="path885" />
        <path
           d="M 5,13 H 9"
           fill="none"
           stroke-width="2"
           id="path887" />
        <path
           d="m 11,13 h 7.999999"
           fill="none"
           stroke-width="2"
           id="path889" />
        <path
           d="M 5,17.5 H 9"
           fill="none"
           id="path891" />
        <path
           d="m 11,17.5 h 7.999999"
           fill="none"
           id="path893" />
        <path
           d="M 5,20.5 H 9"
           fill="none"
           id="path895" />
        <path
           d="m 11,20.5 h 7.999999"
           fill="none"
           id="path897" />
        <path
           d="M 5,23.5 H 9"
           fill="none"
           id="path899" />
        <path
           d="m 11,23.5 h 7.999999"
           fill="none"
           id="path901" />
        <path
           d="M 5,26.5 H 9"
           fill="none"
           id="path903" />
        <path
           d="m 11,26.5 h 7.999999"
           fill="none"
           id="path905" />
      </g>
      <path
         d="m 6.5,1.5 h 5 v 21 h -5 z"
         fill="#e0ce7c"
         fill-rule="evenodd"
         stroke="#c4a000"
         stroke-linecap="round"
         id="path919" />
      <path
         d="m 8,5 h 2"
         fill="none"
         stroke="#ffffff"
         stroke-width="2"
         id="path921" />
    </g>
    <g
       id="g13472"
       transform="matrix(1.6436008,0,0,2.3324805,-94.138763,257.23128)">
      <path
         style="fill:none;fill-opacity:1;fill-rule:evenodd;stroke:#555753;stroke-width:3.02534;stroke-linecap:butt;stroke-linejoin:miter;stroke-miterlimit:4;stroke-dasharray:none;stroke-opacity:1"
         d="m 66.81895,-62.236806 c 1.492165,-0.771146 1.254506,-3.519028 2.83982,-3.948927 1.565313,-0.09469 2.414097,3.97477 3.276717,3.085127 1.696372,-0.684529 -0.251604,-25.833352 6.007314,-28.876764 1.17496,-0.36401 1.736221,0.611884 2.512148,0.246761 1.049987,-0.494058 1.047889,-3.010902 2.184478,-2.961692 2.008891,0.08696 1.488967,5.407057 3.495163,5.553161 1.336914,0.09754 0.839204,-2.929053 2.730598,-3.331868 4.662812,-0.140304 2.437613,21.411909 6.990328,21.10227 2.800464,-0.205318 1.58581,-7.888826 4.259734,-8.638402 3.46817,-0.129825 7.22018,13.359832 10.59472,14.068236 2.0524,0.273825 3.13918,-3.106018 5.35197,-3.332024 1.82184,-0.116869 4.13838,4.024828 6.44421,6.170322"
         id="path19018"
         inkscape:connector-curvature="0"
         sodipodi:nodetypes="ccccaaacccccc" />
    </g>
  </g>
</svg>
