<?xml version="1.0" encoding="UTF-8" standalone="no"?>
<svg
   xmlns:dc="http://purl.org/dc/elements/1.1/"
   xmlns:cc="http://creativecommons.org/ns#"
   xmlns:rdf="http://www.w3.org/1999/02/22-rdf-syntax-ns#"
   xmlns:svg="http://www.w3.org/2000/svg"
   xmlns="http://www.w3.org/2000/svg"
   xmlns:sodipodi="http://sodipodi.sourceforge.net/DTD/sodipodi-0.dtd"
   xmlns:inkscape="http://www.inkscape.org/namespaces/inkscape"
   width="128"
   height="128"
   viewBox="0 0 120 120"
   id="svg2"
   version="1.1"
   inkscape:version="0.92.2 (5c3e80d, 2017-08-06)"
   sodipodi:docname="pickrasterspectrum.svg"
   inkscape:export-filename="D:\Repositories\QGIS_Plugins\enmap-box\enmapbox\gui\ui\icons\spectralprofile.png"
   inkscape:export-xdpi="90"
   inkscape:export-ydpi="90">
  <sodipodi:namedview
     pagecolor="#ffffff"
     bordercolor="#666666"
     borderopacity="1"
     objecttolerance="10"
     gridtolerance="10"
     guidetolerance="10"
     inkscape:pageopacity="0"
     inkscape:pageshadow="2"
     inkscape:window-width="1920"
     inkscape:window-height="1017"
     id="namedview18200"
     showgrid="false"
     inkscape:zoom="1.0037949"
     inkscape:cx="-104.04006"
     inkscape:cy="239.969"
     inkscape:window-x="3832"
     inkscape:window-y="106"
     inkscape:window-maximized="1"
     inkscape:current-layer="g6837"
     units="px" />
  <defs
     id="defs4" />
  <metadata
     id="metadata7">
    <rdf:RDF>
      <cc:Work
         rdf:about="">
        <dc:format>image/svg+xml</dc:format>
        <dc:type
           rdf:resource="http://purl.org/dc/dcmitype/StillImage" />
        <dc:title></dc:title>
      </cc:Work>
    </rdf:RDF>
  </metadata>
  <g
     id="layer2-5"
     style="display:inline;fill:none;stroke:none"
     transform="matrix(7.0648826,0,0,7.0740251,-6.7928387,-84.979604)">
    <path
       inkscape:connector-curvature="0"
       id="rect4012"
       d="M 1.500134,17.500134 H 12.499866 V 28.499866 H 1.500134 Z"
       style="display:inline;fill:none;fill-opacity:1;stroke:none;stroke-width:1.00026798;stroke-linecap:round;stroke-linejoin:round;stroke-miterlimit:4;stroke-dasharray:none;stroke-opacity:1;enable-background:new" />
  </g>
  <g
     style="fill:#3b6594;fill-opacity:1;stroke:#3b6594;stroke-opacity:1"
     id="g6837"
     transform="translate(0,-932.36218)">
    <path
       inkscape:connector-curvature="0"
       id="path827"
       d="m 105.50143,1018.6761 -40.396038,-22.10736 17.345811,43.08296 6.90627,-11.1853 13.655337,14.9296 5.17164,-5.0398 -13.960767,-14.7863 z"
       style="fill:#ffffff;fill-rule:evenodd;stroke:#000000;stroke-width:2.17273927;stroke-linecap:round;stroke-linejoin:round;stroke-miterlimit:4;stroke-dasharray:none" />
    <g
       id="g13472"
       transform="matrix(1.8868515,0,0,1.8340527,-118.98937,1115.4633)">
      <path
         style="fill:none;fill-opacity:1;fill-rule:evenodd;stroke:#555753;stroke-width:3.02534366;stroke-linecap:butt;stroke-linejoin:miter;stroke-miterlimit:4;stroke-dasharray:none;stroke-opacity:1"
         d="m 66.81895,-62.236806 c 1.492165,-0.771146 1.254506,-3.519028 2.83982,-3.948927 1.565313,-0.09469 2.414097,3.97477 3.276717,3.085127 1.696372,-0.684529 -0.251604,-25.833352 6.007314,-28.876764 1.17496,-0.36401 1.736221,0.611884 2.512148,0.246761 1.049987,-0.494058 1.047889,-3.010902 2.184478,-2.961692 2.008891,0.08696 1.488967,5.407057 3.495163,5.553161 1.336914,0.09754 0.839204,-2.929053 2.730598,-3.331868 4.662812,-0.140304 2.437613,21.411909 6.990328,21.10227 2.800464,-0.205318 1.58581,-7.888826 4.259734,-8.638402 3.46817,-0.129825 7.22018,13.359832 10.59472,14.068236 2.0524,0.273825 3.13918,-3.106018 5.35197,-3.332024 1.82184,-0.116869 4.13838,4.024828 6.44421,6.170322"
         id="path19018-8"
         inkscape:connector-curvature="0"
         sodipodi:nodetypes="ccccaaacccccc" />
    </g>
  </g>
</svg>
