<?xml version="1.0" encoding="UTF-8" standalone="no"?>
<svg
   xmlns:dc="http://purl.org/dc/elements/1.1/"
   xmlns:cc="http://creativecommons.org/ns#"
   xmlns:rdf="http://www.w3.org/1999/02/22-rdf-syntax-ns#"
   xmlns:svg="http://www.w3.org/2000/svg"
   xmlns="http://www.w3.org/2000/svg"
   xmlns:sodipodi="http://sodipodi.sourceforge.net/DTD/sodipodi-0.dtd"
   xmlns:inkscape="http://www.inkscape.org/namespaces/inkscape"
   height="24"
   width="24"
   version="1.1"
   id="svg5582"
   sodipodi:docname="profile_expression.svg"
   inkscape:version="0.92.4 (5da689c313, 2019-01-14)">
  <metadata
     id="metadata5588">
    <rdf:RDF>
      <cc:Work
         rdf:about="">
        <dc:format>image/svg+xml</dc:format>
        <dc:type
           rdf:resource="http://purl.org/dc/dcmitype/StillImage" />
        <dc:title></dc:title>
      </cc:Work>
    </rdf:RDF>
  </metadata>
  <defs
     id="defs5586" />
  <sodipodi:namedview
     pagecolor="#ffffff"
     bordercolor="#666666"
     borderopacity="1"
     objecttolerance="10"
     gridtolerance="10"
     guidetolerance="10"
     inkscape:pageopacity="0"
     inkscape:pageshadow="2"
     inkscape:window-width="1920"
     inkscape:window-height="1001"
     id="namedview5584"
     showgrid="false"
     inkscape:zoom="27.812867"
     inkscape:cx="3.4934791"
     inkscape:cy="14.070521"
     inkscape:window-x="-9"
     inkscape:window-y="-9"
     inkscape:window-maximized="1"
     inkscape:current-layer="svg5582" />
  <g
     id="g13472"
     transform="matrix(0.21504144,0,0,0.20902405,-22.381695,35.046443)">
    <path
       style="fill:none;fill-opacity:1;fill-rule:evenodd;stroke:#555753;stroke-width:5.44498682;stroke-linecap:butt;stroke-linejoin:miter;stroke-miterlimit:4;stroke-dasharray:none;stroke-opacity:1"
       d="m 107.08426,-77.730305 c 2.68558,-1.387901 2.25785,-6.333515 5.11108,-7.107243 2.81724,-0.170423 4.34487,7.153755 5.89741,5.552584 3.05311,-1.232009 -0.45284,-46.494626 10.81191,-51.972146 2.11468,-0.65515 3.12483,1.10127 4.52134,0.44411 1.88976,-0.88918 1.88598,-5.41899 3.9316,-5.33042 3.61559,0.15658 2.67983,9.73158 6.29057,9.99453 2.40616,0.17548 1.51039,-5.27168 4.9145,-5.99665 8.39209,-0.25253 4.3872,38.536951 12.58113,37.979665 5.04025,-0.369529 2.85413,-14.198235 7.66664,-15.547315 6.24198,-0.23366 12.99482,24.044903 19.06829,25.319882 3.69389,0.492828 5.64986,-5.590183 9.63242,-5.996947 3.27894,-0.21034 7.44822,7.24385 11.59824,11.105291"
       id="path19018"
       inkscape:connector-curvature="0"
       sodipodi:nodetypes="ccccaaacccccc" />
  </g>
  <g
     id="g5570"
     transform="matrix(0.75659247,0,0,0.75659247,10.428264,-8.548085)">
    <path
       style="fill:none;stroke:#ffffff;stroke-width:0.40000001;stroke-miterlimit:4;stroke-dasharray:none;stroke-opacity:1"
       inkscape:connector-curvature="0"
       id="path5560-1"
       d="M 10.059082,19.597165 C 8.135252,18.913579 7.173338,17.878424 7.17334,16.491696 c -2e-6,-1.093739 0.50781,-1.967761 1.523438,-2.62207 1.025386,-0.654284 2.294916,-0.981432 3.808593,-0.981445 1.376945,1.3e-5 2.470694,0.229505 3.28125,0.688476 0.810536,0.449232 1.215809,0.991223 1.215821,1.625977 -1.2e-5,0.332042 -0.126965,0.625011 -0.38086,0.878906 -0.253917,0.244151 -0.546885,0.366221 -0.878906,0.366211 -0.546885,10e-6 -0.996103,-0.380849 -1.347656,-1.142578 -0.48829,-1.054675 -1.220711,-1.582019 -2.197266,-1.582031 -0.77149,1.2e-5 -1.406255,0.253918 -1.904297,0.761718 -0.498051,0.507824 -0.747074,1.215832 -0.74707,2.124024 -4e-6,1.787117 0.922847,2.680671 2.768555,2.680664 0.195305,7e-6 0.419914,-0.01952 0.673828,-0.05859 0.439445,-0.05859 0.781242,-0.08788 1.025391,-0.08789 0.595694,8e-6 0.893545,0.170906 0.893554,0.512696 -9e-6,0.380866 -0.302743,0.571295 -0.908203,0.571289 -0.214852,6e-6 -0.537117,-0.03417 -0.966797,-0.102539 -0.322273,-0.05859 -0.571296,-0.08788 -0.74707,-0.08789 -1.95313,7e-6 -2.929692,0.996099 -2.929688,2.988281 -4e-6,0.9668 0.258785,1.748049 0.776368,2.34375 0.517572,0.585939 1.240228,0.878907 2.167968,0.878907 1.162102,0 1.933585,-0.600585 2.314453,-1.801758 0.195304,-0.634763 0.410147,-1.074216 0.644532,-1.31836 0.24413,-0.244136 0.566396,-0.366207 0.966797,-0.366211 0.33202,4e-6 0.629871,0.122075 0.893554,0.366211 0.273426,0.234379 0.410144,0.537113 0.410157,0.908204 -1.3e-5,0.888673 -0.498059,1.625977 -1.494141,2.211914 -0.996104,0.576171 -2.202157,0.864257 -3.618164,0.864257 -1.55274,0 -2.934575,-0.371093 -4.145508,-1.113281 C 7.0708,25.256352 6.470214,24.265142 6.470215,23.024905 c -10e-7,-1.552729 1.196287,-2.695306 3.588867,-3.427734" />
    <path
       style="fill:#5c3566"
       inkscape:connector-curvature="0"
       id="path5560"
       transform="translate(22.960894,0.402232)"
       d="m -12.901812,19.194933 c -1.92383,-0.683586 -2.885744,-1.718741 -2.885742,-3.105469 -2e-6,-1.093739 0.50781,-1.967761 1.523438,-2.62207 1.025386,-0.654284 2.294916,-0.981432 3.808593,-0.981445 1.3769451,1.3e-5 2.470694,0.229505 3.2812505,0.688476 0.8105357,0.449232 1.2158087,0.991223 1.2158203,1.625977 -1.16e-5,0.332042 -0.1269646,0.625011 -0.3808594,0.878906 -0.2539172,0.244151 -0.5468856,0.366221 -0.8789062,0.366211 -0.5468848,10e-6 -0.9961031,-0.380849 -1.3476563,-1.142578 -0.4882897,-1.054675 -1.2207109,-1.582019 -2.1972659,-1.582031 -0.77149,1.2e-5 -1.406255,0.253918 -1.904297,0.761718 -0.498051,0.507824 -0.747074,1.215832 -0.74707,2.124024 -4e-6,1.787117 0.922847,2.680671 2.768555,2.680664 0.195305,7e-6 0.419914,-0.01952 0.6738279,-0.05859 0.4394451,-0.05859 0.7812417,-0.08788 1.0253906,-0.08789 0.595694,8e-6 0.8935452,0.170906 0.8935547,0.512696 -9.5e-6,0.380866 -0.3027435,0.571295 -0.9082031,0.571289 -0.2148521,6e-6 -0.5371174,-0.03417 -0.9667969,-0.102539 -0.3222732,-0.05859 -0.5712962,-0.08788 -0.7470702,-0.08789 -1.95313,7e-6 -2.929692,0.996099 -2.929688,2.988281 -4e-6,0.9668 0.258785,1.748049 0.776368,2.34375 0.517572,0.585939 1.240228,0.878907 2.167968,0.878907 1.1621017,0 1.9335853,-0.600585 2.3144535,-1.801758 0.1953031,-0.634763 0.4101466,-1.074216 0.6445312,-1.31836 0.2441306,-0.244136 0.5663959,-0.366207 0.9667969,-0.366211 0.3320201,4e-6 0.6298714,0.122075 0.8935547,0.366211 0.2734255,0.234379 0.4101441,0.537113 0.4101562,0.908204 -1.21e-5,0.888673 -0.4980585,1.625977 -1.4941406,2.211914 -0.9961034,0.576171 -2.2021568,0.864257 -3.6181639,0.864257 -1.55274,0 -2.934575,-0.371093 -4.145508,-1.113281 -1.201173,-0.742186 -1.801759,-1.733396 -1.801758,-2.973633 -1e-6,-1.552729 1.196287,-2.695306 3.588867,-3.427734" />
    <g
       style="fill:#ffffff"
       id="g5568">
      <path
         style="opacity:0.5"
         inkscape:connector-curvature="0"
         id="path5562"
         d="m 8.8453703,15.335963 c -1.8135886,1.95573 -1.401671,-0.322256 -0.3145916,-1.106748 1.1264312,-0.81289 1.7573183,-0.79349 1.7490763,-0.54418 -0.0096,0.290414 -0.8636237,1.035325 -1.4344847,1.650928 z" />
      <path
         style="opacity:0.5"
         inkscape:connector-curvature="0"
         id="path5564"
         d="m 8.2348719,21.645433 c -1.8135886,1.95573 -1.5022297,0.147018 -0.4151503,-0.637474 1.1264312,-0.81289 1.7573183,-0.79349 1.7490763,-0.54418 -0.0096,0.290414 -0.763065,0.566051 -1.333926,1.181654 z" />
      <path
         style="opacity:0.5"
         inkscape:connector-curvature="0"
         id="path5566"
         d="m 16.204463,23.831019 c -1.74795,1.952651 -1.613829,0.09846 -0.49057,-0.620714 0.858053,-0.549374 1.112902,-0.0745 0.49057,0.620714 z" />
    </g>
  </g>
</svg>
