<?xml version="1.0" encoding="UTF-8" standalone="no"?>
<svg
   xmlns:dc="http://purl.org/dc/elements/1.1/"
   xmlns:cc="http://creativecommons.org/ns#"
   xmlns:rdf="http://www.w3.org/1999/02/22-rdf-syntax-ns#"
   xmlns:svg="http://www.w3.org/2000/svg"
   xmlns="http://www.w3.org/2000/svg"
   xmlns:sodipodi="http://sodipodi.sourceforge.net/DTD/sodipodi-0.dtd"
   xmlns:inkscape="http://www.inkscape.org/namespaces/inkscape"
   version="1.1"
   id="Capa_1"
   x="0px"
   y="0px"
   viewBox="0 0 128 128"
   xml:space="preserve"
   inkscape:version="0.92.2 (5c3e80d, 2017-08-06)"
   sodipodi:docname="profile_reload.svg"
   width="128"
   height="128"
   inkscape:export-filename="D:\Repositories\QGIS_Plugins\enmap-box\enmapbox\gui\ui\icons\speclib_save.png"
   inkscape:export-xdpi="90"
   inkscape:export-ydpi="90"><metadata
     id="metadata65"><rdf:RDF><cc:Work
         rdf:about=""><dc:format>image/svg+xml</dc:format><dc:type
           rdf:resource="http://purl.org/dc/dcmitype/StillImage" /><dc:title /></cc:Work></rdf:RDF></metadata><defs
     id="defs63"><marker
       inkscape:stockid="TriangleOutM"
       orient="auto"
       refY="0"
       refX="0"
       id="TriangleOutM"
       style="overflow:visible"
       inkscape:isstock="true"><path
         id="path4411"
         d="M 5.77,0 -2.88,5 V -5 Z"
         style="fill:#4a4135;fill-opacity:1;fill-rule:evenodd;stroke:#4a4135;stroke-width:1.00000003pt;stroke-opacity:1"
         transform="scale(0.4)"
         inkscape:connector-curvature="0" /></marker><marker
       inkscape:stockid="Arrow2Send"
       orient="auto"
       refY="0"
       refX="0"
       id="Arrow2Send"
       style="overflow:visible"
       inkscape:isstock="true"><path
         id="path4299"
         style="fill:#000000;fill-opacity:1;fill-rule:evenodd;stroke:#000000;stroke-width:0.625;stroke-linejoin:round;stroke-opacity:1"
         d="M 8.7185878,4.0337352 -2.2072895,0.01601326 8.7185884,-4.0017078 c -1.7454984,2.3720609 -1.7354408,5.6174519 -6e-7,8.035443 z"
         transform="matrix(-0.3,0,0,-0.3,0.69,0)"
         inkscape:connector-curvature="0" /></marker><marker
       inkscape:stockid="Arrow1Send"
       orient="auto"
       refY="0"
       refX="0"
       id="Arrow1Send"
       style="overflow:visible"
       inkscape:isstock="true"><path
         id="path4281"
         d="M 0,0 5,-5 -12.5,0 5,5 Z"
         style="fill:#000000;fill-opacity:1;fill-rule:evenodd;stroke:#000000;stroke-width:1.00000003pt;stroke-opacity:1"
         transform="matrix(-0.2,0,0,-0.2,-1.2,0)"
         inkscape:connector-curvature="0" /></marker><marker
       inkscape:stockid="TriangleOutL"
       orient="auto"
       refY="0"
       refX="0"
       id="TriangleOutL"
       style="overflow:visible"
       inkscape:isstock="true"><path
         id="path4408"
         d="M 5.77,0 -2.88,5 V -5 Z"
         style="fill:#000000;fill-opacity:1;fill-rule:evenodd;stroke:#000000;stroke-width:1.00000003pt;stroke-opacity:1"
         transform="scale(0.8)"
         inkscape:connector-curvature="0" /></marker><marker
       inkscape:stockid="Arrow1Lend"
       orient="auto"
       refY="0"
       refX="0"
       id="Arrow1Lend"
       style="overflow:visible"
       inkscape:isstock="true"><path
         id="path4269"
         d="M 0,0 5,-5 -12.5,0 5,5 Z"
         style="fill:#000000;fill-opacity:1;fill-rule:evenodd;stroke:#000000;stroke-width:1.00000003pt;stroke-opacity:1"
         transform="matrix(-0.8,0,0,-0.8,-10,0)"
         inkscape:connector-curvature="0" /></marker></defs><sodipodi:namedview
     pagecolor="#ffffff"
     bordercolor="#666666"
     borderopacity="1"
     objecttolerance="10"
     gridtolerance="10"
     guidetolerance="10"
     inkscape:pageopacity="0"
     inkscape:pageshadow="2"
     inkscape:window-width="1920"
     inkscape:window-height="1017"
     id="namedview61"
     showgrid="false"
     inkscape:zoom="4.4528302"
     inkscape:cx="113.08043"
     inkscape:cy="56.817278"
     inkscape:window-x="-8"
     inkscape:window-y="-8"
     inkscape:window-maximized="1"
     inkscape:current-layer="Capa_1" /><g
     id="g31"
     transform="translate(0,75)" /><g
     id="g33"
     transform="translate(0,75)" /><g
     id="g35"
     transform="translate(0,75)" /><g
     id="g37"
     transform="translate(0,75)" /><g
     id="g39"
     transform="translate(0,75)" /><g
     id="g41"
     transform="translate(0,75)" /><g
     id="g43"
     transform="translate(0,75)" /><g
     id="g45"
     transform="translate(0,75)" /><g
     id="g47"
     transform="translate(0,75)" /><g
     id="g49"
     transform="translate(0,75)" /><g
     id="g51"
     transform="translate(0,75)" /><g
     id="g53"
     transform="translate(0,75)" /><g
     id="g55"
     transform="translate(0,75)" /><g
     id="g57"
     transform="translate(0,75)" /><g
     id="g59"
     transform="translate(0,75)" /><g
     id="g942"
     transform="matrix(0.43177124,0,0,0.43177124,49.280367,100.74094)"><path
       inkscape:connector-curvature="0"
       style="display:block;overflow:visible;fill:#31b428;fill-opacity:1;stroke:#1b781c;stroke-width:3.08590293;stroke-opacity:1"
       id="path19927"
       overflow="visible"
       display="block"
       d="M 165.45524,-17.057454 C 176.78291,-70.76001 119.44457,-90.93613 69.457166,-51.502001 l -14.73275,-16.174293 0.295328,52.868735 46.171046,-0.04541 c 0,0 -15.36792,-17.276423 -15.36792,-17.276423 35.15502,-26.642795 80.17899,-24.648381 79.63237,15.07364 z" /><path
       inkscape:connector-curvature="0"
       style="display:block;overflow:visible;fill:#31b428;fill-opacity:1;stroke:#1b781c;stroke-width:3.08590293;stroke-opacity:1"
       id="path19931"
       overflow="visible"
       display="block"
       d="M 55.527812,-5.417064 C 44.200148,48.285432 101.53848,68.461552 151.52587,29.027422 l 14.34703,16.75292 -0.10251,-53.06161 -45.20672,-0.338296 c 0,0 14.59646,17.276423 14.59646,17.276423 C 100.00515,36.299252 54.981186,34.304842 55.527812,-5.417178 Z" /><path
       style="overflow:visible;opacity:0.27222224;fill:#e6e6e6;stroke-width:5.67610693"
       inkscape:connector-curvature="0"
       id="path19933"
       overflow="visible"
       d="m 164.29398,41.059522 -0.19282,-45.902789 -39.92386,-1.157244 13.54364,15.981363 -11.93389,7.323426 c 9.2577,6.943297 14.03945,7.474467 17.12536,15.382074 l 8.69255,-6.512077 12.68907,14.885247 z" /><path
       style="overflow:visible;opacity:0.27222224;fill:#ffffff;stroke-width:5.67610693"
       inkscape:connector-curvature="0"
       id="path19939"
       overflow="visible"
       d="m 165.06546,-30.267628 c -11.08899,-32.220762 -50.74393,-18.96166 -62.29668,-13.886539 -12.884588,0.652582 -17.511688,-8.748584 -27.77313,-9.25773 43.35614,-30.210966 88.91259,-20.058397 90.06981,23.144269 z" /></g><g
     id="g13472"
     transform="matrix(1.8217537,0,0,1.7707764,-115.48007,172.788)"><path
       style="fill:none;fill-opacity:1;fill-rule:evenodd;stroke:#555753;stroke-width:3.02534366;stroke-linecap:butt;stroke-linejoin:miter;stroke-miterlimit:4;stroke-dasharray:none;stroke-opacity:1"
       d="m 66.81895,-62.236806 c 1.492165,-0.771146 1.254506,-3.519028 2.83982,-3.948927 1.565313,-0.09469 2.414097,3.97477 3.276717,3.085127 1.696372,-0.684529 -0.251604,-25.833352 6.007314,-28.876764 1.17496,-0.36401 1.736221,0.611884 2.512148,0.246761 1.049987,-0.494058 1.047889,-3.010902 2.184478,-2.961692 2.008891,0.08696 1.488967,5.407057 3.495163,5.553161 1.336914,0.09754 0.839204,-2.929053 2.730598,-3.331868 4.662812,-0.140304 2.437613,21.411909 6.990328,21.10227 2.800464,-0.205318 1.58581,-7.888826 4.259734,-8.638402 3.46817,-0.129825 7.22018,13.359832 10.59472,14.068236 2.0524,0.273825 3.13918,-3.106018 5.35197,-3.332024 1.82184,-0.116869 4.13838,4.024828 6.44421,6.170322"
       id="path19018"
       inkscape:connector-curvature="0"
       sodipodi:nodetypes="ccccaaacccccc" /></g></svg>