<?xml version="1.0" encoding="UTF-8" standalone="no"?>
<svg
   xmlns:dc="http://purl.org/dc/elements/1.1/"
   xmlns:cc="http://creativecommons.org/ns#"
   xmlns:rdf="http://www.w3.org/1999/02/22-rdf-syntax-ns#"
   xmlns:svg="http://www.w3.org/2000/svg"
   xmlns="http://www.w3.org/2000/svg"
   xmlns:sodipodi="http://sodipodi.sourceforge.net/DTD/sodipodi-0.dtd"
   xmlns:inkscape="http://www.inkscape.org/namespaces/inkscape"
   version="1.1"
   id="Capa_1"
   x="0px"
   y="0px"
   viewBox="0 0 128 128"
   xml:space="preserve"
   inkscape:version="0.92.4 (5da689c313, 2019-01-14)"
   sodipodi:docname="profiletheme_bright.svg"
   width="128"
   height="128"
   inkscape:export-filename="D:\Repositories\QGIS_Plugins\enmap-box\enmapbox\gui\ui\icons\speclib_save.png"
   inkscape:export-xdpi="90"
   inkscape:export-ydpi="90"><metadata
     id="metadata65"><rdf:RDF><cc:Work
         rdf:about=""><dc:format>image/svg+xml</dc:format><dc:type
           rdf:resource="http://purl.org/dc/dcmitype/StillImage" /><dc:title></dc:title></cc:Work></rdf:RDF></metadata><defs
     id="defs63"><marker
       inkscape:stockid="TriangleOutM"
       orient="auto"
       refY="0"
       refX="0"
       id="TriangleOutM"
       style="overflow:visible"
       inkscape:isstock="true"><path
         id="path4411"
         d="M 5.77,0 -2.88,5 V -5 Z"
         style="fill:#4a4135;fill-opacity:1;fill-rule:evenodd;stroke:#4a4135;stroke-width:1.00000003pt;stroke-opacity:1"
         transform="scale(0.4)"
         inkscape:connector-curvature="0" /></marker><marker
       inkscape:stockid="Arrow2Send"
       orient="auto"
       refY="0"
       refX="0"
       id="Arrow2Send"
       style="overflow:visible"
       inkscape:isstock="true"><path
         id="path4299"
         style="fill:#000000;fill-opacity:1;fill-rule:evenodd;stroke:#000000;stroke-width:0.625;stroke-linejoin:round;stroke-opacity:1"
         d="M 8.7185878,4.0337352 -2.2072895,0.01601326 8.7185884,-4.0017078 c -1.7454984,2.3720609 -1.7354408,5.6174519 -6e-7,8.035443 z"
         transform="matrix(-0.3,0,0,-0.3,0.69,0)"
         inkscape:connector-curvature="0" /></marker><marker
       inkscape:stockid="Arrow1Send"
       orient="auto"
       refY="0"
       refX="0"
       id="Arrow1Send"
       style="overflow:visible"
       inkscape:isstock="true"><path
         id="path4281"
         d="M 0,0 5,-5 -12.5,0 5,5 Z"
         style="fill:#000000;fill-opacity:1;fill-rule:evenodd;stroke:#000000;stroke-width:1.00000003pt;stroke-opacity:1"
         transform="matrix(-0.2,0,0,-0.2,-1.2,0)"
         inkscape:connector-curvature="0" /></marker><marker
       inkscape:stockid="TriangleOutL"
       orient="auto"
       refY="0"
       refX="0"
       id="TriangleOutL"
       style="overflow:visible"
       inkscape:isstock="true"><path
         id="path4408"
         d="M 5.77,0 -2.88,5 V -5 Z"
         style="fill:#000000;fill-opacity:1;fill-rule:evenodd;stroke:#000000;stroke-width:1.00000003pt;stroke-opacity:1"
         transform="scale(0.8)"
         inkscape:connector-curvature="0" /></marker><marker
       inkscape:stockid="Arrow1Lend"
       orient="auto"
       refY="0"
       refX="0"
       id="Arrow1Lend"
       style="overflow:visible"
       inkscape:isstock="true"><path
         id="path4269"
         d="M 0,0 5,-5 -12.5,0 5,5 Z"
         style="fill:#000000;fill-opacity:1;fill-rule:evenodd;stroke:#000000;stroke-width:1.00000003pt;stroke-opacity:1"
         transform="matrix(-0.8,0,0,-0.8,-10,0)"
         inkscape:connector-curvature="0" /></marker></defs><sodipodi:namedview
     pagecolor="#000000"
     bordercolor="#666666"
     borderopacity="1"
     objecttolerance="10"
     gridtolerance="10"
     guidetolerance="10"
     inkscape:pageopacity="0"
     inkscape:pageshadow="2"
     inkscape:window-width="1920"
     inkscape:window-height="1001"
     id="namedview61"
     showgrid="false"
     inkscape:zoom="4.4528302"
     inkscape:cx="-27.174574"
     inkscape:cy="72.917843"
     inkscape:window-x="-9"
     inkscape:window-y="-9"
     inkscape:window-maximized="1"
     inkscape:current-layer="Capa_1"
     inkscape:pagecheckerboard="true" /><rect
     style="opacity:0.97000002;fill:#ffffff;fill-opacity:1;stroke:none;stroke-opacity:1;stroke-width:1.0015748;stroke-miterlimit:4;stroke-dasharray:none"
     id="rect1222"
     width="128.45763"
     height="128.23305"
     x="0.44915253"
     y="0.21610202" /><g
     id="g31"
     transform="translate(0,75)" /><g
     id="g33"
     transform="translate(0,75)" /><g
     id="g35"
     transform="translate(0,75)" /><g
     id="g37"
     transform="translate(0,75)" /><g
     id="g39"
     transform="translate(0,75)" /><g
     id="g41"
     transform="translate(0,75)" /><g
     id="g43"
     transform="translate(0,75)" /><g
     id="g45"
     transform="translate(0,75)" /><g
     id="g47"
     transform="translate(0,75)" /><g
     id="g49"
     transform="translate(0,75)" /><g
     id="g51"
     transform="translate(0,75)" /><g
     id="g53"
     transform="translate(0,75)" /><g
     id="g55"
     transform="translate(0,75)" /><g
     id="g57"
     transform="translate(0,75)" /><g
     id="g59"
     transform="translate(0,75)" /><path
     sodipodi:nodetypes="ccccaaacccccc"
     inkscape:connector-curvature="0"
     id="path19018"
     d="m 6.2342384,86.809997 c 3.0031934,-1.50861 2.524871,-6.884354 5.7155396,-7.725376 3.150414,-0.185244 4.858712,7.775934 6.594857,6.035505 3.414189,-1.33916 -0.506388,-50.538376 12.09057,-56.492272 2.364774,-0.712121 3.494391,1.197043 5.056054,0.482744 2.113247,-0.966537 2.109025,-5.890296 4.396571,-5.794025 4.043178,0.170121 2.996757,10.577948 7.034511,10.863775 2.690728,0.19082 1.689017,-5.730173 5.495715,-6.518209 9.384569,-0.27448 4.906041,41.888605 14.069025,41.282852 5.63633,-0.401669 3.191667,-15.433091 8.573318,-16.899503 6.980183,-0.25398 14.531634,26.136144 21.323374,27.522011 4.130747,0.53569 6.318047,-6.076374 10.771597,-6.518515 3.66671,-0.228633 8.32908,7.873863 12.96989,12.071142"
     style="fill:none;fill-opacity:1;fill-rule:evenodd;stroke:#000000;stroke-width:6.00188976;stroke-linecap:butt;stroke-linejoin:miter;stroke-miterlimit:4;stroke-dasharray:none;stroke-opacity:1" /></svg>