<?xml version="1.0" encoding="UTF-8" standalone="no"?>
<svg
   xmlns:dc="http://purl.org/dc/elements/1.1/"
   xmlns:cc="http://creativecommons.org/ns#"
   xmlns:rdf="http://www.w3.org/1999/02/22-rdf-syntax-ns#"
   xmlns:svg="http://www.w3.org/2000/svg"
   xmlns="http://www.w3.org/2000/svg"
   xmlns:sodipodi="http://sodipodi.sourceforge.net/DTD/sodipodi-0.dtd"
   xmlns:inkscape="http://www.inkscape.org/namespaces/inkscape"
   version="1.1"
   id="Capa_1"
   x="0px"
   y="0px"
   viewBox="0 0 65 65"
   xml:space="preserve"
   inkscape:version="0.92.1 r15371"
   sodipodi:docname="speclib_clear.svg"
   width="65"
   height="65"
   inkscape:export-filename="D:\Repositories\QGIS_Plugins\enmap-box\enmapbox\gui\ui\icons\speclib_add.png"
   inkscape:export-xdpi="90"
   inkscape:export-ydpi="90"><metadata
     id="metadata65"><rdf:RDF><cc:Work
         rdf:about=""><dc:format>image/svg+xml</dc:format><dc:type
           rdf:resource="http://purl.org/dc/dcmitype/StillImage" /><dc:title></dc:title></cc:Work></rdf:RDF></metadata><defs
     id="defs63" /><sodipodi:namedview
     pagecolor="#ffffff"
     bordercolor="#666666"
     borderopacity="1"
     objecttolerance="10"
     gridtolerance="10"
     guidetolerance="10"
     inkscape:pageopacity="0"
     inkscape:pageshadow="2"
     inkscape:window-width="1920"
     inkscape:window-height="1017"
     id="namedview61"
     showgrid="false"
     inkscape:zoom="4.4528302"
     inkscape:cx="28.600005"
     inkscape:cy="32.070552"
     inkscape:window-x="1672"
     inkscape:window-y="-8"
     inkscape:window-maximized="1"
     inkscape:current-layer="Capa_1" /><g
     id="g5"
     transform="matrix(0.89264024,0,0,0.89620652,-1.1893912,0.96087011)"
     style="fill:#ff3300;fill-opacity:1;stroke:#000000;stroke-opacity:1"><path
       style="fill:#ff3300;fill-opacity:1;stroke:#000000;stroke-opacity:1"
       d="m 26.5,41 c -13.255,0 -24,-3.806 -24,-8.5 l 0,12.5 0.045,0 c 0.731,4.461 11.175,8 23.955,8 12.78,0 23.224,-3.539 23.955,-8 l 0.045,0 0,-12.5 c 0,4.694 -10.745,8.5 -24,8.5 z"
       id="path7"
       inkscape:connector-curvature="0" /><path
       style="fill:#ff3300;fill-opacity:1;stroke:#000000;stroke-opacity:1"
       d="m 2.5,32 0,0.5 C 2.5,32.332 2.518,32.166 2.545,32 L 2.5,32 Z"
       id="path9"
       inkscape:connector-curvature="0" /><path
       style="fill:#ff3300;fill-opacity:1;stroke:#000000;stroke-opacity:1"
       d="m 50.455,32 c 0.027,0.166 0.045,0.332 0.045,0.5 l 0,-0.5 -0.045,0 z"
       id="path11"
       inkscape:connector-curvature="0" /></g><g
     id="g13"
     transform="matrix(0.89264024,0,0,0.89620652,-1.1893912,0.96087011)"
     style="fill:#73d216;stroke:#000000;stroke-opacity:1"><path
       style="fill:#73d216;stroke:#000000;stroke-opacity:1"
       d="m 26.5,29 c -13.255,0 -24,-3.806 -24,-8.5 l 0,12.5 0.045,0 c 0.731,4.461 11.175,8 23.955,8 12.78,0 23.224,-3.539 23.955,-8 l 0.045,0 0,-12.5 c 0,4.694 -10.745,8.5 -24,8.5 z"
       id="path15"
       inkscape:connector-curvature="0" /><path
       style="fill:#73d216;stroke:#000000;stroke-opacity:1"
       d="m 2.5,20 0,0.5 C 2.5,20.332 2.518,20.166 2.545,20 L 2.5,20 Z"
       id="path17"
       inkscape:connector-curvature="0" /><path
       style="fill:#73d216;stroke:#000000;stroke-opacity:1"
       d="m 50.455,20 c 0.027,0.166 0.045,0.332 0.045,0.5 l 0,-0.5 -0.045,0 z"
       id="path19"
       inkscape:connector-curvature="0" /></g><ellipse
     style="fill:#729fcf;stroke:#000000;stroke-width:0.89442158;stroke-opacity:1"
     cx="22.465576"
     cy="8.5786257"
     rx="21.423365"
     ry="7.6177564"
     id="ellipse21" /><g
     id="g23"
     transform="matrix(0.77265321,0,0,0.74162355,-3.2153222,9.0545447)"
     style="fill:#3465a4;fill-opacity:1"><path
       style="fill:#3465a4;fill-opacity:1;stroke:#000000;stroke-width:1.1815666;stroke-opacity:1"
       d="m 33.237288,9.6300025 c -15.313398,0 -27.7270132,-4.599317 -27.7270132,-10.27172821 l 0,15.10548271 0.051988,0 c 0.8445188,5.390844 12.9103902,9.667509 27.6750252,9.667509 14.764635,0 26.830507,-4.276665 27.675025,-9.667509 l 0.05199,0 0,-15.10548271 C 60.964301,5.0306855 48.550686,9.6300025 33.237288,9.6300025 Z"
       id="path25"
       inkscape:connector-curvature="0" /><path
       style="fill:#3465a4;fill-opacity:1"
       d="m 2.5,8 0,0.5 C 2.5,8.332 2.518,8.166 2.545,8 L 2.5,8 Z"
       id="path27"
       inkscape:connector-curvature="0" /><path
       style="fill:#3465a4;fill-opacity:1"
       d="M 50.455,8 C 50.482,8.166 50.5,8.332 50.5,8.5 l 0,-0.5 -0.045,0 z"
       id="path29"
       inkscape:connector-curvature="0" /></g><g
     id="g31"
     transform="translate(0,12)" /><g
     id="g33"
     transform="translate(0,12)" /><g
     id="g35"
     transform="translate(0,12)" /><g
     id="g37"
     transform="translate(0,12)" /><g
     id="g39"
     transform="translate(0,12)" /><g
     id="g41"
     transform="translate(0,12)" /><g
     id="g43"
     transform="translate(0,12)" /><g
     id="g45"
     transform="translate(0,12)" /><g
     id="g47"
     transform="translate(0,12)" /><g
     id="g49"
     transform="translate(0,12)" /><g
     id="g51"
     transform="translate(0,12)" /><g
     id="g53"
     transform="translate(0,12)" /><g
     id="g55"
     transform="translate(0,12)" /><g
     id="g57"
     transform="translate(0,12)" /><g
     id="g59"
     transform="translate(0,12)" /><path
     inkscape:connector-curvature="0"
     style="fill:none;stroke:#d00000;stroke-width:2.44151783;stroke-linejoin:round"
     d="M 47.081901,64.048668 45.775064,49.224091 h 18.29571 l -1.306838,14.824577 z"
     id="path2" /><path
     inkscape:connector-curvature="0"
     style="fill:none;stroke:#d00000;stroke-width:1.22075891"
     d="M 52.309246,50.36444 V 62.908311"
     id="path4" /><path
     inkscape:connector-curvature="0"
     style="fill:none;stroke:#d00000;stroke-width:1.22075891"
     d="M 57.536593,62.908311 V 50.36444"
     id="path6" /><path
     inkscape:connector-curvature="0"
     style="fill:none;stroke:#d00000;stroke-width:1.22075891"
     d="m 51.65583,43.522336 c 0,-1.14035 1.960252,-1.71053 3.267087,-1.71053 h 1.306838 c 1.306838,0 3.267091,0.57018 3.267091,1.71053"
     id="path8" /><path
     inkscape:connector-curvature="0"
     style="fill:none;stroke:#d00000;stroke-width:2.44151783;stroke-linecap:round"
     d="m 45.775064,44.662685 h 18.29571"
     id="path10" /></svg>