<?xml version="1.0" encoding="UTF-8" standalone="no"?>
<svg
   xmlns:dc="http://purl.org/dc/elements/1.1/"
   xmlns:cc="http://creativecommons.org/ns#"
   xmlns:rdf="http://www.w3.org/1999/02/22-rdf-syntax-ns#"
   xmlns:svg="http://www.w3.org/2000/svg"
   xmlns="http://www.w3.org/2000/svg"
   xmlns:sodipodi="http://sodipodi.sourceforge.net/DTD/sodipodi-0.dtd"
   xmlns:inkscape="http://www.inkscape.org/namespaces/inkscape"
   height="126"
   viewBox="0 0 126 126"
   width="126"
   version="1.1"
   id="svg10"
   sodipodi:docname="undo_green.svg"
   inkscape:version="0.92.2 (5c3e80d, 2017-08-06)">
  <metadata
     id="metadata16">
    <rdf:RDF>
      <cc:Work
         rdf:about="">
        <dc:format>image/svg+xml</dc:format>
        <dc:type
           rdf:resource="http://purl.org/dc/dcmitype/StillImage" />
        <dc:title></dc:title>
      </cc:Work>
    </rdf:RDF>
  </metadata>
  <defs
     id="defs14" />
  <sodipodi:namedview
     pagecolor="#ffffff"
     bordercolor="#666666"
     borderopacity="1"
     objecttolerance="10"
     gridtolerance="10"
     guidetolerance="10"
     inkscape:pageopacity="0"
     inkscape:pageshadow="2"
     inkscape:window-width="1920"
     inkscape:window-height="1017"
     id="namedview12"
     showgrid="false"
     inkscape:zoom="3.4766083"
     inkscape:cx="12"
     inkscape:cy="12"
     inkscape:window-x="-8"
     inkscape:window-y="107"
     inkscape:window-maximized="1"
     inkscape:current-layer="svg10" />
  <path
     style="fill:#31b428;fill-rule:evenodd;stroke-width:6.73678303;fill-opacity:1"
     inkscape:connector-curvature="0"
     id="path2"
     d="M 46.788993,5.1063209 6.3682965,55.632192 46.788993,106.15806 V 72.474149 h 33.683914 c 18.145484,17.560772 6.540925,33.683911 -13.473565,33.683911 v 13.47357 c 22.957817,0 53.894258,-8.86359 53.894258,-50.525872 0,-14.175539 -11.62407,-30.315523 -40.420693,-30.315523 H 46.788993 Z" />
  <path
     style="fill:#69c862;fill-rule:evenodd;stroke-width:6.73678303;fill-opacity:1"
     inkscape:connector-curvature="0"
     id="path4"
     d="M 7.3377465,56.051893 43.416375,105.07816 V 89.920395 L 9.7324619,47.815503 Z M 50.153199,64.65746 v 6.736783 h 26.947133 c 9.093141,8.800259 10.702707,17.229995 7.539403,23.460172 9.849285,-5.662266 12.280259,-17.535846 -0.80262,-30.196955 z m 57.538961,36.10444 c -10.849531,8.50519 -25.18333,11.05304 -37.32861,11.05304 v -7.42124 c -2.107455,0.43115 -4.355223,0.68446 -6.736783,0.68446 v 13.47356 c 14.888802,0 33.079786,-3.80493 44.065393,-17.78982 z" />
  <path
     style="fill:none;stroke:#1b781c;stroke-width:6.73678303;stroke-linejoin:round;stroke-opacity:1"
     inkscape:connector-curvature="0"
     id="path6"
     d="M 46.788993,5.1063209 6.3682965,55.632192 46.788993,106.15806 V 72.474149 h 33.683914 c 18.145484,17.560772 6.540925,33.683911 -13.473565,33.683911 v 13.47357 c 22.957817,0 53.894258,-8.86359 53.894258,-50.525872 0,-14.175539 -11.62407,-30.315523 -40.420693,-30.315523 H 46.788993 Z" />
</svg>
